<svg xmlns="http://www.w3.org/2000/svg" viewBox="0 0 1200 800" preserveAspectRatio="xMidYMid slice">
  <defs>
    <linearGradient id="sky" x1="0" x2="0" y1="0" y2="1">
      <stop offset="0%" stop-color="#3aa6ff"/>
      <stop offset="100%" stop-color="#1370c7"/>
    </linearGradient>
    <linearGradient id="water" x1="0" x2="1" y1="0" y2="0">
      <stop offset="0%" stop-color="#1e90ff"/>
      <stop offset="100%" stop-color="#0b68c2"/>
    </linearGradient>
  </defs>
  <rect width="1200" height="800" fill="url(#sky)"/>
  <!-- cliffs -->
  <path d="M0,420 C200,360 320,360 500,400 C700,450 900,380 1200,420 L1200,800 L0,800 Z" fill="#1b261f"/>
  <path d="M0,460 C220,420 360,410 520,440 C740,490 920,430 1200,470 L1200,800 L0,800 Z" fill="#273628"/>
  <!-- river -->
  <path d="M0,560 C180,520 300,500 450,520 C650,550 820,600 1200,660 L1200,800 L0,800 Z" fill="url(#water)"/>
  <!-- bank highlights -->
  <path d="M0,560 C180,520 300,500 450,520 C650,550 820,600 1200,660" fill="none" stroke="#9be0ff" stroke-width="6" opacity="0.25"/>
</svg>


